<svg width="32" height="38" viewBox="0 0 32 38" fill="none" xmlns="http://www.w3.org/2000/svg">
<path d="M28 18C28 24.6274 22.6274 30 16 30C9.37258 30 4 24.6274 4 18C4 11.3726 9.37258 6 16 6C22.6274 6 28 11.3726 28 18Z" fill="url(#paint0_linear_103_592)"/>
<path fill-rule="evenodd" clip-rule="evenodd" d="M16 29.8125C22.5239 29.8125 27.8125 24.5239 27.8125 18C27.8125 11.4761 22.5239 6.1875 16 6.1875C9.47614 6.1875 4.1875 11.4761 4.1875 18C4.1875 24.5239 9.47614 29.8125 16 29.8125ZM16 30C22.6274 30 28 24.6274 28 18C28 11.3726 22.6274 6 16 6C9.37258 6 4 11.3726 4 18C4 24.6274 9.37258 30 16 30Z" fill="url(#paint1_radial_103_592)" fill-opacity="0.6"/>
<defs>
<linearGradient id="paint0_linear_103_592" x1="4" y1="6" x2="28" y2="30" gradientUnits="userSpaceOnUse">
<stop stop-color="#F8E352"/>
<stop offset="1" stop-color="#EFB61F"/>
</linearGradient>
<radialGradient id="paint1_radial_103_592" cx="0" cy="0" r="1" gradientUnits="userSpaceOnUse" gradientTransform="translate(13.5625 15) rotate(80.7701) scale(15.1968)">
<stop stop-color="#E26E03"/>
<stop offset="1" stop-color="#F6DC4A"/>
</radialGradient>
</defs>
</svg>
