<svg width="32" height="38" viewBox="0 0 32 38" fill="none" xmlns="http://www.w3.org/2000/svg">
<path d="M25.3333 17.6667C25.3333 24.11 20.11 29.3333 13.6667 29.3333C7.22334 29.3333 2 24.11 2 17.6667C2 11.2233 7.22334 6 13.6667 6C20.11 6 25.3333 11.2233 25.3333 17.6667Z" fill="url(#paint0_linear_103_596)"/>
<path fill-rule="evenodd" clip-rule="evenodd" d="M13.6667 29.151C20.0093 29.151 25.151 24.0093 25.151 17.6667C25.151 11.324 20.0093 6.18229 13.6667 6.18229C7.32402 6.18229 2.18229 11.324 2.18229 17.6667C2.18229 24.0093 7.32402 29.151 13.6667 29.151ZM13.6667 29.3333C20.11 29.3333 25.3333 24.11 25.3333 17.6667C25.3333 11.2233 20.11 6 13.6667 6C7.22335 6 2 11.2233 2 17.6667C2 24.11 7.22335 29.3333 13.6667 29.3333Z" fill="url(#paint1_radial_103_596)" fill-opacity="0.6"/>
<path fill-rule="evenodd" clip-rule="evenodd" d="M13.6667 21.1666C13.6667 24.1735 16.1042 26.6111 19.1111 26.6111H26.1111C28.2589 26.6111 30 24.87 30 22.7222C30 20.5744 28.2589 18.8333 26.1111 18.8333C25.43 18.8333 24.7898 19.0084 24.233 19.3161C23.4756 17.2202 21.4683 15.7222 19.1111 15.7222C16.1042 15.7222 13.6667 18.1598 13.6667 21.1666Z" fill="url(#paint2_linear_103_596)"/>
<path fill-rule="evenodd" clip-rule="evenodd" d="M24.1803 19.4563L24.1415 19.3491C23.3976 17.2905 21.426 15.8194 19.1111 15.8194C16.1579 15.8194 13.7639 18.2135 13.7639 21.1666C13.7639 24.1198 16.1579 26.5139 19.1111 26.5139H26.1111C28.2052 26.5139 29.9028 24.8163 29.9028 22.7222C29.9028 20.6281 28.2052 18.9305 26.1111 18.9305C25.4468 18.9305 24.8227 19.1013 24.28 19.4012L24.1803 19.4563ZM24.1987 19.224C23.4164 17.1764 21.4336 15.7222 19.1111 15.7222C16.1042 15.7222 13.6667 18.1598 13.6667 21.1666C13.6667 24.1735 16.1042 26.6111 19.1111 26.6111H26.1111C28.2589 26.6111 30 24.87 30 22.7222C30 20.5744 28.2589 18.8333 26.1111 18.8333C25.465 18.8333 24.8557 18.9909 24.3196 19.2697C24.2905 19.2848 24.2616 19.3003 24.233 19.3161C24.2218 19.2852 24.2104 19.2545 24.1987 19.224Z" fill="url(#paint3_radial_103_596)" fill-opacity="0.6"/>
<defs>
<linearGradient id="paint0_linear_103_596" x1="2" y1="6" x2="25.3333" y2="29.3333" gradientUnits="userSpaceOnUse">
<stop stop-color="#F8E352"/>
<stop offset="1" stop-color="#EFB61F"/>
</linearGradient>
<radialGradient id="paint1_radial_103_596" cx="0" cy="0" r="1" gradientUnits="userSpaceOnUse" gradientTransform="translate(11.2969 14.75) rotate(80.7701) scale(14.7746)">
<stop stop-color="#E26E03"/>
<stop offset="1" stop-color="#F6DC4A"/>
</radialGradient>
<linearGradient id="paint2_linear_103_596" x1="13.6667" y1="15.9037" x2="29.83" y2="27.6479" gradientUnits="userSpaceOnUse">
<stop stop-color="#F8F8F8"/>
<stop offset="1" stop-color="#E5E5E5"/>
</linearGradient>
<radialGradient id="paint3_radial_103_596" cx="0" cy="0" r="1" gradientUnits="userSpaceOnUse" gradientTransform="translate(20.9583 23.2083) rotate(21.1048) scale(5.94011 9.3848)">
<stop stop-color="#AEAEAE"/>
<stop offset="1" stop-color="#E9E9E9"/>
</radialGradient>
</defs>
</svg>
