<svg width="32" height="38" viewBox="0 0 32 38" fill="none" xmlns="http://www.w3.org/2000/svg">
<path d="M28.8333 8C28.8333 11.866 25.6993 15 21.8333 15C17.9673 15 14.8333 11.866 14.8333 8C14.8333 4.13401 17.9673 1 21.8333 1C25.6993 1 28.8333 4.13401 28.8333 8Z" fill="url(#paint0_linear_103_759)"/>
<path fill-rule="evenodd" clip-rule="evenodd" d="M21.8333 14.8906C25.6389 14.8906 28.724 11.8056 28.724 8C28.724 4.19441 25.6389 1.10938 21.8333 1.10938C18.0277 1.10938 14.9427 4.19441 14.9427 8C14.9427 11.8056 18.0277 14.8906 21.8333 14.8906ZM21.8333 15C25.6993 15 28.8333 11.866 28.8333 8C28.8333 4.13401 25.6993 1 21.8333 1C17.9673 1 14.8333 4.13401 14.8333 8C14.8333 11.866 17.9673 15 21.8333 15Z" fill="url(#paint1_radial_103_759)" fill-opacity="0.6"/>
<path fill-rule="evenodd" clip-rule="evenodd" d="M2 15C2 20.1547 6.17868 24.3333 11.3333 24.3333H23.3333C27.0152 24.3333 30 21.3486 30 17.6667C30 13.9848 27.0152 11 23.3333 11C22.1657 11 21.0681 11.3002 20.1137 11.8276C18.8153 8.23461 15.3742 5.66667 11.3333 5.66667C6.17868 5.66667 2 9.84535 2 15Z" fill="url(#paint2_linear_103_759)"/>
<path fill-rule="evenodd" clip-rule="evenodd" d="M20.0233 12.068L19.9569 11.8843C18.6816 8.35518 15.3018 5.83334 11.3333 5.83334C6.27072 5.83334 2.16667 9.93739 2.16667 15C2.16667 20.0626 6.27072 24.1667 11.3333 24.1667H23.3333C26.9232 24.1667 29.8333 21.2565 29.8333 17.6667C29.8333 14.0768 26.9232 11.1667 23.3333 11.1667C22.1946 11.1667 21.1247 11.4594 20.1943 11.9735L20.0233 12.068ZM20.055 11.6697C18.7139 8.1596 15.3147 5.66667 11.3333 5.66667C6.17868 5.66667 2 9.84535 2 15C2 20.1547 6.17868 24.3333 11.3333 24.3333H23.3333C27.0152 24.3333 30 21.3486 30 17.6667C30 13.9848 27.0152 11 23.3333 11C22.2257 11 21.1812 11.2701 20.2621 11.748C20.2123 11.7739 20.1628 11.8005 20.1137 11.8276C20.0946 11.7747 20.075 11.7221 20.055 11.6697Z" fill="url(#paint3_radial_103_759)" fill-opacity="0.6"/>
<defs>
<linearGradient id="paint0_linear_103_759" x1="14.8333" y1="1" x2="28.8333" y2="15" gradientUnits="userSpaceOnUse">
<stop stop-color="#F8E352"/>
<stop offset="1" stop-color="#EFB61F"/>
</linearGradient>
<radialGradient id="paint1_radial_103_759" cx="0" cy="0" r="1" gradientUnits="userSpaceOnUse" gradientTransform="translate(20.4115 6.25) rotate(80.7701) scale(8.86478)">
<stop stop-color="#E26E03"/>
<stop offset="1" stop-color="#F6DC4A"/>
</radialGradient>
<linearGradient id="paint2_linear_103_759" x1="2" y1="5.97778" x2="29.7085" y2="26.1108" gradientUnits="userSpaceOnUse">
<stop stop-color="#F8F8F8"/>
<stop offset="1" stop-color="#E5E5E5"/>
</linearGradient>
<radialGradient id="paint3_radial_103_759" cx="0" cy="0" r="1" gradientUnits="userSpaceOnUse" gradientTransform="translate(14.5 18.5) rotate(21.1048) scale(10.183 16.0882)">
<stop stop-color="#AEAEAE"/>
<stop offset="1" stop-color="#E9E9E9"/>
</radialGradient>
</defs>
</svg>
