<svg width="32" height="38" viewBox="0 0 32 38" fill="none" xmlns="http://www.w3.org/2000/svg">
<path fill-rule="evenodd" clip-rule="evenodd" d="M2 15.3333C2 20.488 6.17868 24.6667 11.3333 24.6667H23.3333C27.0152 24.6667 30 21.6819 30 18C30 14.3181 27.0152 11.3333 23.3333 11.3333C22.1657 11.3333 21.0681 11.6335 20.1137 12.1609C18.8153 8.56794 15.3742 6 11.3333 6C6.17868 6 2 10.1787 2 15.3333Z" fill="url(#paint0_linear_103_739)"/>
<path fill-rule="evenodd" clip-rule="evenodd" d="M20.0233 12.4013L19.9569 12.2176C18.6816 8.68851 15.3018 6.16667 11.3333 6.16667C6.27072 6.16667 2.16667 10.2707 2.16667 15.3333C2.16667 20.3959 6.27072 24.5 11.3333 24.5H23.3333C26.9232 24.5 29.8333 21.5899 29.8333 18C29.8333 14.4101 26.9232 11.5 23.3333 11.5C22.1946 11.5 21.1247 11.7927 20.1943 12.3068L20.0233 12.4013ZM20.055 12.003C18.7139 8.49293 15.3147 6 11.3333 6C6.17868 6 2 10.1787 2 15.3333C2 20.488 6.17868 24.6667 11.3333 24.6667H23.3333C27.0152 24.6667 30 21.6819 30 18C30 14.3181 27.0152 11.3333 23.3333 11.3333C22.2257 11.3333 21.1812 11.6034 20.2621 12.0814C20.2123 12.1073 20.1628 12.1338 20.1137 12.1609C20.0946 12.1081 20.075 12.0554 20.055 12.003Z" fill="url(#paint1_radial_103_739)" fill-opacity="0.6"/>
<path d="M14.5417 28.6042L14.5282 32.9964C14.5253 33.9417 13.9221 34.7736 13.0307 35.0617C11.887 35.4312 10.6539 34.7943 10.2766 33.639C9.98251 32.7386 10.2918 31.7549 11.0445 31.1969L14.5417 28.6042Z" fill="url(#paint2_linear_103_739)"/>
<path d="M21.5417 28.6042L21.5282 32.9964C21.5253 33.9417 20.9221 34.7736 20.0307 35.0617C18.887 35.4312 17.6539 34.7943 17.2766 33.639C16.9825 32.7386 17.2918 31.7549 18.0445 31.1969L21.5417 28.6042Z" fill="url(#paint3_linear_103_739)"/>
<path d="M18.9167 21.1667L18.9032 25.5589C18.9003 26.5042 18.2971 27.3361 17.4057 27.6242C16.262 27.9938 15.0289 27.3568 14.6516 26.2015C14.3575 25.3011 14.6668 24.3174 15.4195 23.7594L18.9167 21.1667Z" fill="url(#paint4_linear_103_739)"/>
<defs>
<linearGradient id="paint0_linear_103_739" x1="2" y1="6.31111" x2="29.7085" y2="26.4441" gradientUnits="userSpaceOnUse">
<stop stop-color="#F8F8F8"/>
<stop offset="1" stop-color="#E5E5E5"/>
</linearGradient>
<radialGradient id="paint1_radial_103_739" cx="0" cy="0" r="1" gradientUnits="userSpaceOnUse" gradientTransform="translate(14.5 18.8333) rotate(21.1048) scale(10.183 16.0882)">
<stop stop-color="#AEAEAE"/>
<stop offset="1" stop-color="#E9E9E9"/>
</radialGradient>
<linearGradient id="paint2_linear_103_739" x1="12.7644" y1="27.6862" x2="13.7171" y2="36.0708" gradientUnits="userSpaceOnUse">
<stop stop-color="#41AEFF"/>
<stop offset="1" stop-color="#0996FF"/>
</linearGradient>
<linearGradient id="paint3_linear_103_739" x1="19.7644" y1="27.6862" x2="20.7171" y2="36.0708" gradientUnits="userSpaceOnUse">
<stop stop-color="#41AEFF"/>
<stop offset="1" stop-color="#0996FF"/>
</linearGradient>
<linearGradient id="paint4_linear_103_739" x1="17.1394" y1="20.2487" x2="18.0921" y2="28.6334" gradientUnits="userSpaceOnUse">
<stop stop-color="#41AEFF"/>
<stop offset="1" stop-color="#0996FF"/>
</linearGradient>
</defs>
</svg>
