<svg width="32" height="38" viewBox="0 0 32 38" fill="none" xmlns="http://www.w3.org/2000/svg">
<path fill-rule="evenodd" clip-rule="evenodd" d="M2 15.3333C2 20.488 6.17868 24.6667 11.3333 24.6667H23.3333C27.0152 24.6667 30 21.6819 30 18C30 14.3181 27.0152 11.3333 23.3333 11.3333C22.1657 11.3333 21.0681 11.6335 20.1137 12.1609C18.8153 8.56794 15.3742 6 11.3333 6C6.17868 6 2 10.1787 2 15.3333Z" fill="url(#paint0_linear_103_624)"/>
<path fill-rule="evenodd" clip-rule="evenodd" d="M20.0233 12.4013L19.9569 12.2176C18.6816 8.68851 15.3018 6.16667 11.3333 6.16667C6.27072 6.16667 2.16667 10.2707 2.16667 15.3333C2.16667 20.3959 6.27072 24.5 11.3333 24.5H23.3333C26.9232 24.5 29.8333 21.5899 29.8333 18C29.8333 14.4101 26.9232 11.5 23.3333 11.5C22.1946 11.5 21.1247 11.7927 20.1943 12.3068L20.0233 12.4013ZM20.055 12.003C18.7139 8.49293 15.3147 6 11.3333 6C6.17868 6 2 10.1787 2 15.3333C2 20.488 6.17868 24.6667 11.3333 24.6667H23.3333C27.0152 24.6667 30 21.6819 30 18C30 14.3181 27.0152 11.3333 23.3333 11.3333C22.2257 11.3333 21.1812 11.6034 20.2621 12.0814C20.2123 12.1073 20.1628 12.1338 20.1137 12.1609C20.0946 12.1081 20.075 12.0554 20.055 12.003Z" fill="url(#paint1_radial_103_624)" fill-opacity="0.6"/>
<path d="M18.3333 21.1667L18.319 25.8517C18.3159 26.86 17.6725 27.7474 16.7217 28.0546C15.5017 28.4489 14.1864 27.7695 13.7839 26.5371C13.4702 25.5767 13.8002 24.5274 14.603 23.9322L18.3333 21.1667Z" fill="url(#paint2_linear_103_624)"/>
<path d="M8.33261 24.644H5.5L8.94372 16.5L9.05597 22.356H11.8636L8.41991 30.5L8.33261 24.644Z" fill="url(#paint3_linear_103_624)"/>
<defs>
<linearGradient id="paint0_linear_103_624" x1="2" y1="6.31111" x2="29.7085" y2="26.4441" gradientUnits="userSpaceOnUse">
<stop stop-color="#F8F8F8"/>
<stop offset="1" stop-color="#E5E5E5"/>
</linearGradient>
<radialGradient id="paint1_radial_103_624" cx="0" cy="0" r="1" gradientUnits="userSpaceOnUse" gradientTransform="translate(14.5 18.8333) rotate(21.1048) scale(10.183 16.0882)">
<stop stop-color="#AEAEAE"/>
<stop offset="1" stop-color="#E9E9E9"/>
</radialGradient>
<linearGradient id="paint2_linear_103_624" x1="16.4376" y1="20.1874" x2="17.4539" y2="29.1311" gradientUnits="userSpaceOnUse">
<stop stop-color="#41AEFF"/>
<stop offset="1" stop-color="#0996FF"/>
</linearGradient>
<linearGradient id="paint3_linear_103_624" x1="5.5" y1="16.5" x2="12.6826" y2="30.0664" gradientUnits="userSpaceOnUse">
<stop stop-color="#FFCF3C"/>
<stop offset="1" stop-color="#FF7A00"/>
</linearGradient>
</defs>
</svg>
