<svg width="32" height="38" viewBox="0 0 32 38" fill="none" xmlns="http://www.w3.org/2000/svg">
<path fill-rule="evenodd" clip-rule="evenodd" d="M28 19.767C26.5784 20.5209 24.9569 20.9479 23.2356 20.9479C17.6114 20.9479 13.0521 16.3886 13.0521 10.7644C13.0521 9.04312 13.4791 7.42161 14.233 6C8.43881 6.88451 4 11.8892 4 17.9306C4 24.5963 9.40366 30 16.0694 30C22.1108 30 27.1155 25.5612 28 19.767Z" fill="url(#paint0_linear_103_608)"/>
<path fill-rule="evenodd" clip-rule="evenodd" d="M27.7519 20.1043C26.3864 20.7657 24.8541 21.1365 23.2356 21.1365C17.5072 21.1365 12.8635 16.4928 12.8635 10.7644C12.8635 9.14591 13.2343 7.61357 13.8957 6.24813C8.37224 7.26925 4.18858 12.1115 4.18858 17.9306C4.18858 24.4922 9.50781 29.8114 16.0694 29.8114C21.8885 29.8114 26.7308 25.6278 27.7519 20.1043ZM27.7921 19.8742C26.4211 20.5613 24.8735 20.9479 23.2356 20.9479C17.6114 20.9479 13.0521 16.3886 13.0521 10.7644C13.0521 9.12649 13.4387 7.5789 14.1258 6.20794C14.1607 6.13817 14.1965 6.06885 14.233 6C14.1553 6.01186 14.0778 6.02447 14.0006 6.03781C8.32054 7.01895 4 11.9702 4 17.9306C4 24.5963 9.40366 30 16.0694 30C22.0298 30 26.9811 25.6795 27.9622 19.9994C27.9755 19.9222 27.9881 19.8447 28 19.767C27.9311 19.8035 27.8618 19.8393 27.7921 19.8742Z" fill="url(#paint1_radial_103_608)" fill-opacity="0.6"/>
<path fill-rule="evenodd" clip-rule="evenodd" d="M23.4905 10.9838C23.4466 10.6912 23.0248 10.6912 22.9809 10.9838C22.813 12.1031 21.9343 12.9818 20.8149 13.1497C20.5224 13.1936 20.5224 13.6155 20.8149 13.6594C21.9343 13.8273 22.813 14.706 22.9809 15.8253C23.0248 16.1179 23.4466 16.1179 23.4905 15.8253C23.6584 14.706 24.5371 13.8273 25.6564 13.6594C25.949 13.6155 25.949 13.1936 25.6564 13.1497C24.5371 12.9818 23.6584 12.1031 23.4905 10.9838Z" fill="url(#paint2_linear_103_608)"/>
<path fill-rule="evenodd" clip-rule="evenodd" d="M19.6095 8.24963C19.5844 8.08244 19.3433 8.08244 19.3183 8.24963C19.2223 8.88925 18.7202 9.39136 18.0806 9.4873C17.9134 9.51238 17.9134 9.75344 18.0806 9.77852C18.7202 9.87446 19.2223 10.3766 19.3183 11.0162C19.3433 11.1834 19.5844 11.1834 19.6095 11.0162C19.7054 10.3766 20.2075 9.87446 20.8472 9.77852C21.0144 9.75344 21.0144 9.51238 20.8472 9.4873C20.2075 9.39136 19.7054 8.88925 19.6095 8.24963Z" fill="url(#paint3_linear_103_608)"/>
<defs>
<linearGradient id="paint0_linear_103_608" x1="4" y1="6.23836" x2="27.7616" y2="30" gradientUnits="userSpaceOnUse">
<stop stop-color="#8C8EFC"/>
<stop offset="1" stop-color="#6468E2"/>
</linearGradient>
<radialGradient id="paint1_radial_103_608" cx="0" cy="0" r="1" gradientUnits="userSpaceOnUse" gradientTransform="translate(11.5434 16.2333) rotate(72.0619) scale(14.4701)">
<stop stop-color="#A9ABFF"/>
<stop offset="1" stop-color="#6265C9"/>
</radialGradient>
<linearGradient id="paint2_linear_103_608" x1="20.5955" y1="10.7644" x2="25.8759" y2="16.0447" gradientUnits="userSpaceOnUse">
<stop stop-color="#FFDD2E"/>
<stop offset="1" stop-color="#FFBF00"/>
</linearGradient>
<linearGradient id="paint3_linear_103_608" x1="17.9552" y1="8.12424" x2="20.9726" y2="11.1416" gradientUnits="userSpaceOnUse">
<stop stop-color="#FFDD2E"/>
<stop offset="1" stop-color="#FFBF00"/>
</linearGradient>
</defs>
</svg>
