<svg width="32" height="38" viewBox="0 0 32 38" fill="none" xmlns="http://www.w3.org/2000/svg">
<path fill-rule="evenodd" clip-rule="evenodd" d="M28.8333 9.03075C28.0041 9.47053 27.0582 9.71963 26.0541 9.71963C22.7733 9.71963 20.1137 7.06002 20.1137 3.77922C20.1137 2.77516 20.3628 1.82927 20.8026 1C17.4226 1.51597 14.8333 4.43536 14.8333 7.95951C14.8333 11.8479 17.9855 15 21.8738 15C25.398 15 28.3174 12.4107 28.8333 9.03075Z" fill="url(#paint0_linear_103_821)"/>
<path fill-rule="evenodd" clip-rule="evenodd" d="M28.6886 9.22748C27.8921 9.61333 26.9982 9.82964 26.0541 9.82964C22.7126 9.82964 20.0037 7.12078 20.0037 3.77922C20.0037 2.83511 20.22 1.94125 20.6058 1.14474C17.3838 1.74039 14.9433 4.56505 14.9433 7.95951C14.9433 11.7871 18.0462 14.89 21.8738 14.89C25.2683 14.89 28.0929 12.4495 28.6886 9.22748ZM28.712 9.0933C27.9123 9.49407 27.0095 9.71963 26.0541 9.71963C22.7733 9.71963 20.1137 7.06002 20.1137 3.77922C20.1137 2.82378 20.3393 1.92103 20.74 1.1213C20.7604 1.0806 20.7813 1.04016 20.8026 1C20.7572 1.00692 20.7121 1.01427 20.667 1.02205C17.3536 1.59439 14.8333 4.48262 14.8333 7.95951C14.8333 11.8479 17.9855 15 21.8738 15C25.3507 15 28.2389 12.4797 28.8113 9.16632C28.8191 9.12127 28.8264 9.07608 28.8333 9.03075C28.7932 9.05205 28.7527 9.0729 28.712 9.0933Z" fill="url(#paint1_radial_103_821)" fill-opacity="0.6"/>
<path fill-rule="evenodd" clip-rule="evenodd" d="M2 15C2 20.1547 6.17868 24.3333 11.3333 24.3333H23.3333C27.0152 24.3333 30 21.3486 30 17.6667C30 13.9848 27.0152 11 23.3333 11C22.1657 11 21.0681 11.3002 20.1137 11.8276C18.8153 8.23461 15.3742 5.66667 11.3333 5.66667C6.17868 5.66667 2 9.84535 2 15Z" fill="url(#paint2_linear_103_821)"/>
<path fill-rule="evenodd" clip-rule="evenodd" d="M20.0233 12.068L19.9569 11.8843C18.6816 8.35518 15.3018 5.83334 11.3333 5.83334C6.27072 5.83334 2.16667 9.93739 2.16667 15C2.16667 20.0626 6.27072 24.1667 11.3333 24.1667H23.3333C26.9232 24.1667 29.8333 21.2565 29.8333 17.6667C29.8333 14.0768 26.9232 11.1667 23.3333 11.1667C22.1946 11.1667 21.1247 11.4594 20.1943 11.9735L20.0233 12.068ZM20.055 11.6697C18.7139 8.1596 15.3147 5.66667 11.3333 5.66667C6.17868 5.66667 2 9.84535 2 15C2 20.1547 6.17868 24.3333 11.3333 24.3333H23.3333C27.0152 24.3333 30 21.3486 30 17.6667C30 13.9848 27.0152 11 23.3333 11C22.2257 11 21.1812 11.2701 20.2621 11.748C20.2123 11.7739 20.1628 11.8005 20.1137 11.8276C20.0946 11.7747 20.075 11.7221 20.055 11.6697Z" fill="url(#paint3_radial_103_821)" fill-opacity="0.6"/>
<path d="M14.5417 28.2708L14.5282 32.6631C14.5253 33.6084 13.9221 34.4402 13.0307 34.7283C11.887 35.0979 10.6539 34.4609 10.2766 33.3056C9.98251 32.4052 10.2918 31.4215 11.0445 30.8636L14.5417 28.2708Z" fill="url(#paint4_linear_103_821)"/>
<path d="M21.5417 28.2708L21.5282 32.6631C21.5253 33.6084 20.9221 34.4402 20.0307 34.7283C18.887 35.0979 17.6539 34.4609 17.2766 33.3056C16.9825 32.4052 17.2918 31.4215 18.0445 30.8636L21.5417 28.2708Z" fill="url(#paint5_linear_103_821)"/>
<path d="M18.9167 20.8333L18.9032 25.2256C18.9003 26.1709 18.2971 27.0027 17.4057 27.2908C16.262 27.6604 15.0289 27.0234 14.6516 25.8681C14.3575 24.9677 14.6668 23.984 15.4195 23.426L18.9167 20.8333Z" fill="url(#paint6_linear_103_821)"/>
<defs>
<linearGradient id="paint0_linear_103_821" x1="14.8333" y1="1.13904" x2="28.6943" y2="15" gradientUnits="userSpaceOnUse">
<stop stop-color="#8C8EFC"/>
<stop offset="1" stop-color="#6468E2"/>
</linearGradient>
<radialGradient id="paint1_radial_103_821" cx="0" cy="0" r="1" gradientUnits="userSpaceOnUse" gradientTransform="translate(19.2336 6.96944) rotate(72.0619) scale(8.44087)">
<stop stop-color="#A9ABFF"/>
<stop offset="1" stop-color="#6265C9"/>
</radialGradient>
<linearGradient id="paint2_linear_103_821" x1="2" y1="5.97778" x2="29.7085" y2="26.1108" gradientUnits="userSpaceOnUse">
<stop stop-color="#F8F8F8"/>
<stop offset="1" stop-color="#E5E5E5"/>
</linearGradient>
<radialGradient id="paint3_radial_103_821" cx="0" cy="0" r="1" gradientUnits="userSpaceOnUse" gradientTransform="translate(14.5 18.5) rotate(21.1048) scale(10.183 16.0882)">
<stop stop-color="#AEAEAE"/>
<stop offset="1" stop-color="#E9E9E9"/>
</radialGradient>
<linearGradient id="paint4_linear_103_821" x1="12.7644" y1="27.3528" x2="13.7171" y2="35.7375" gradientUnits="userSpaceOnUse">
<stop stop-color="#41AEFF"/>
<stop offset="1" stop-color="#0996FF"/>
</linearGradient>
<linearGradient id="paint5_linear_103_821" x1="19.7644" y1="27.3528" x2="20.7171" y2="35.7375" gradientUnits="userSpaceOnUse">
<stop stop-color="#41AEFF"/>
<stop offset="1" stop-color="#0996FF"/>
</linearGradient>
<linearGradient id="paint6_linear_103_821" x1="17.1394" y1="19.9153" x2="18.0921" y2="28.3" gradientUnits="userSpaceOnUse">
<stop stop-color="#41AEFF"/>
<stop offset="1" stop-color="#0996FF"/>
</linearGradient>
</defs>
</svg>
